<svg width="21" height="15" viewBox="0 0 21 15" fill="none" xmlns="http://www.w3.org/2000/svg">
<path d="M10.759 1.08737e-05C9.19055 -0.00272213 7.22556 0.509716 5.28701 1.55281C3.35155 2.59591 1.81745 3.96241 0.916908 5.29702C0.0159233 6.62709 -0.227717 7.86605 0.215506 8.74972C0.659169 9.62883 1.78088 10.1344 3.35331 10.1344C4.92574 10.139 6.89072 9.62428 8.82487 8.58574C10.7634 7.54264 12.2966 6.17159 13.1954 4.84152C14.0986 3.51146 14.3365 2.2725 13.8959 1.38883C13.4509 0.509716 12.3319 1.08737e-05 10.759 1.08737e-05ZM14.8079 3.20172C14.6537 3.89864 14.3189 4.61377 13.8475 5.31069C12.8518 6.78196 11.226 8.21678 9.19055 9.30998C7.15507 10.4077 5.08875 10.9589 3.35287 10.9589C2.53339 10.9589 1.77383 10.8314 1.13367 10.5626L1.60025 11.4918C2.04435 12.3755 3.16298 12.8811 4.73629 12.8811C6.30916 12.8811 8.27414 12.3709 10.2083 11.3279C12.1468 10.2893 13.68 8.91825 14.5788 7.58364C15.4776 6.25358 15.7243 5.01461 15.2794 4.1355L14.8079 3.20172ZM16.0768 3.96696C16.5702 5.18315 16.1737 6.66353 15.2309 8.0528C14.3982 9.28721 13.1249 10.4852 11.5476 11.4873C12.0367 11.5419 12.5478 11.5693 13.0676 11.5693C15.2485 11.5693 17.2223 11.0864 18.6145 10.3349C20.0112 9.58328 20.7778 8.5994 20.7778 7.60641C20.7778 6.61342 20.0112 5.62954 18.6145 4.87796C17.9052 4.49534 17.0417 4.18105 16.0768 3.96696ZM20.7778 9.65161C20.3284 10.1937 19.7116 10.6719 18.9846 11.0637C17.4426 11.8927 15.3631 12.3892 13.0676 12.3892C12.1336 12.3892 11.2348 12.3072 10.3933 12.1523C9.37118 12.6852 8.34463 13.0815 7.35774 13.3412C7.41061 13.373 7.46347 13.4004 7.52075 13.4323C8.91298 14.1838 10.8868 14.6667 13.0676 14.6667C15.2485 14.6667 17.2223 14.1838 18.6145 13.4323C20.0112 12.6807 20.7778 11.6968 20.7778 10.7038V9.65161Z" fill="#E9CF81"/>
</svg>
