<svg width="31" height="18" viewBox="0 0 31 18" fill="none" xmlns="http://www.w3.org/2000/svg">
<path d="M10.2857 16.7143C10.2857 16.3733 10.4212 16.0463 10.6623 15.8051C10.9034 15.564 11.2304 15.4286 11.5714 15.4286H19.2857C19.6267 15.4286 19.9537 15.564 20.1949 15.8051C20.436 16.0463 20.5714 16.3733 20.5714 16.7143C20.5714 17.0553 20.436 17.3823 20.1949 17.6234C19.9537 17.8645 19.6267 18 19.2857 18H11.5714C11.2304 18 10.9034 17.8645 10.6623 17.6234C10.4212 17.3823 10.2857 17.0553 10.2857 16.7143ZM5.14286 9C5.14286 8.65901 5.27832 8.33198 5.51943 8.09086C5.76055 7.84974 6.08758 7.71429 6.42857 7.71429H24.4286C24.7696 7.71429 25.0966 7.84974 25.3377 8.09086C25.5788 8.33198 25.7143 8.65901 25.7143 9C25.7143 9.34099 25.5788 9.66802 25.3377 9.90914C25.0966 10.1503 24.7696 10.2857 24.4286 10.2857H6.42857C6.08758 10.2857 5.76055 10.1503 5.51943 9.90914C5.27832 9.66802 5.14286 9.34099 5.14286 9ZM0 1.28571C0 0.944722 0.135459 0.617695 0.376577 0.376577C0.617695 0.135459 0.944722 0 1.28571 0H29.5714C29.9124 0 30.2394 0.135459 30.4806 0.376577C30.7217 0.617695 30.8571 0.944722 30.8571 1.28571C30.8571 1.62671 30.7217 1.95373 30.4806 2.19485C30.2394 2.43597 29.9124 2.57143 29.5714 2.57143H1.28571C0.944722 2.57143 0.617695 2.43597 0.376577 2.19485C0.135459 1.95373 0 1.62671 0 1.28571Z" fill="white"/>
</svg>
