<svg width="32" height="20" viewBox="0 0 32 20" fill="none" xmlns="http://www.w3.org/2000/svg">
<path d="M21.663 2.34752C21.6589 2.68849 21.5196 3.01388 21.2756 3.25211C21.0316 3.49034 20.703 3.62189 20.362 3.61783L12.6483 3.52592C12.3073 3.52186 11.982 3.38251 11.7437 3.13854C11.5055 2.89457 11.3739 2.56595 11.378 2.22498C11.3821 1.88401 11.5214 1.55862 11.7654 1.32039C12.0094 1.08216 12.338 0.950612 12.6789 0.954675L20.3927 1.04658C20.7337 1.05065 21.059 1.18999 21.2973 1.43396C21.5355 1.67794 21.6671 2.00655 21.663 2.34752ZM26.7136 10.1225C26.7095 10.4635 26.5702 10.7889 26.3262 11.0271C26.0822 11.2653 25.7536 11.3969 25.4126 11.3928L7.41391 11.1784C7.07294 11.1743 6.74755 11.035 6.50932 10.791C6.2711 10.547 6.13954 10.2184 6.14361 9.87745C6.14767 9.53648 6.28701 9.21109 6.53099 8.97286C6.77496 8.73463 7.10358 8.60308 7.44455 8.60714L25.4433 8.82159C25.7842 8.82566 26.1096 8.965 26.3479 9.20897C26.5861 9.45295 26.7176 9.78156 26.7136 10.1225ZM31.7642 17.8975C31.7601 18.2385 31.6208 18.5639 31.3768 18.8021C31.1328 19.0404 30.8042 19.1719 30.4632 19.1678L2.17951 18.8309C1.83854 18.8268 1.51315 18.6874 1.27492 18.4435C1.0367 18.1995 0.905143 17.8709 0.909205 17.5299C0.913268 17.1889 1.05261 16.8636 1.29659 16.6253C1.54056 16.3871 1.86918 16.2555 2.21015 16.2596L30.4939 16.5966C30.8348 16.6007 31.1602 16.74 31.3984 16.984C31.6367 17.228 31.7682 17.5566 31.7642 17.8975Z" fill="white"/>
</svg>
