<svg width="202" height="356" viewBox="0 0 202 356" fill="none" xmlns="http://www.w3.org/2000/svg">
<path d="M111.723 315.631L125.191 299.304L138.658 282.887C136.361 281.57 134.244 279.939 132.365 278.038C129.115 274.873 126.819 270.798 125.757 266.306C125.246 264.289 124.982 262.213 124.97 260.127C124.954 257.16 125.813 254.26 127.433 251.816C128.113 250.833 128.905 249.94 129.793 249.155C131.4 247.669 133.338 246.622 135.433 246.11C138.851 245.434 142.388 246.116 145.345 248.02C148.828 250.199 151.634 253.369 153.432 257.155C151.211 251.578 150.969 245.365 152.747 239.62C154.384 234.721 157.562 231.015 161.33 229.693C164.426 228.721 167.746 228.841 170.77 230.036C173.664 230.995 176.131 233.001 177.719 235.689C179.307 238.378 179.912 241.569 179.423 244.681C179.027 247.404 177.98 249.98 176.379 252.175C178.365 250.194 180.634 248.542 183.105 247.277C186.951 245.391 191.758 244.632 195.691 249.163C197.482 251.266 198.536 253.936 198.681 256.739C198.834 259.549 198.108 262.335 196.612 264.682C196.135 265.424 195.609 266.13 195.038 266.796C194.545 267.372 194.019 267.917 193.465 268.429C191.553 270.211 189.381 271.669 187.03 272.748C185.037 273.667 182.949 274.349 180.808 274.78C181.523 274.895 182.381 275.05 183.309 275.27C184.351 275.515 185.38 275.814 186.393 276.168C189.332 277.115 192.157 278.411 194.81 280.029C197.792 281.964 200.498 284.634 201.544 288.373C202.173 290.624 202.151 293.017 201.481 295.255C200.811 297.482 199.542 299.465 197.823 300.969C195.742 302.847 193.032 303.8 190.279 303.622C187.014 303.435 182.963 301.777 178.046 297.483C178.809 298.316 179.531 299.188 180.21 300.096C181.785 302.142 183.161 304.346 184.316 306.675C185.521 309.129 186.091 311.864 185.971 314.615C185.851 317.365 185.045 320.036 183.632 322.366C182.266 324.696 180.314 326.595 177.985 327.858C175.656 329.121 173.039 329.7 170.416 329.534H169.983L169.55 329.493C165.114 328.888 161.039 326.634 158.081 323.15C154.723 319.275 152.573 314.437 151.913 309.272L137.62 332.603L123.31 356L96.6505 355.526L69.9905 355.061L57.3174 338.26L44.6678 321.492C43.4501 323.799 41.7972 325.828 39.8078 327.458C37.8184 329.088 35.5331 330.285 33.0882 330.979C28.5649 332.236 23.8606 331.583 20.3914 329.027C17.7229 326.968 15.8176 324.02 14.9949 320.676C14.0482 316.978 14.1658 313.073 15.3332 309.443C12.9974 309.294 10.7181 308.635 8.64418 307.509C6.57028 306.384 4.74835 304.817 3.29729 302.912C1.94958 301.212 0.978363 299.225 0.452286 297.092C-0.0737915 294.959 -0.14183 292.732 0.25293 290.569C1.12489 286.802 3.38409 283.541 6.5462 281.483C9.9959 279.176 14.1417 278.264 18.1967 278.919C17.8573 275.957 18.1171 272.954 18.9597 270.102C19.8022 267.25 21.2088 264.611 23.0897 262.355C26.5589 258.224 31.3732 255.824 36.046 256.069C39.9494 256.41 43.5927 258.239 46.2726 261.204C49.3792 264.536 51.3753 268.813 51.9681 273.409C55.883 271.861 60.1678 271.629 64.2164 272.748C67.8089 273.671 70.9513 275.927 73.0506 279.091C75.4971 283.001 75.8904 288.291 74.2778 293.255C73.3925 295.934 71.983 298.395 70.1379 300.483C68.2928 302.57 66.0518 304.239 63.5556 305.386C66.3482 308.651 68.7948 311.917 71.2413 315.182C73.6878 318.447 76.1422 321.713 78.9348 324.897C78.982 297.94 79.0318 270.984 79.0843 244.028C79.1367 217.072 79.1865 190.113 79.2337 163.151L59.402 162.971L39.5624 162.792C33.5005 161.718 28.0272 158.379 24.1753 153.404C20.3395 148.48 18.3799 142.266 18.6687 135.942C18.9912 129.28 21.776 124.513 26.1026 121.247C30.4293 117.982 36.3292 116.463 42.8428 116.243L49.3721 116.423L55.9014 116.602C50.9187 116.479 45.954 115.933 41.0571 114.969C36.1342 114.026 31.4184 112.158 27.141 109.459C24.9592 107.997 23.1938 105.957 22.0277 103.549C20.8351 101.151 20.2656 98.4724 20.3757 95.7768C20.7533 87.1969 26.7398 82.3722 34.1895 79.8333C41.6392 77.2945 50.5521 77.0414 56.7824 77.621C58.0804 77.7434 55.3192 77.1802 51.2758 75.5393C47.2324 73.8984 41.9853 71.1881 38.2487 67.0165C36.0066 64.4872 34.3067 61.4933 33.2612 58.2324C32.0714 54.8026 32.0714 51.0495 33.2612 47.6197C34.1145 45.3996 35.4881 43.4354 37.2575 41.9052C38.3388 40.9604 39.5151 40.1392 40.766 39.4561C47.6257 35.6682 55.7126 36.3621 62.2891 38.0928C66.4824 39.1651 70.5194 40.8123 74.2935 42.991C72.8382 32.264 73.735 22.6717 76.3074 15.2918C78.8798 7.91192 83.1198 2.7362 88.3747 0.834084C90.6992 0.0174921 93.1795 -0.203776 95.6042 0.189152C96.8642 0.372865 98.0979 0.715551 99.2779 1.2096C104.415 3.43827 108.372 8.80177 110.543 16.198C112.714 23.5942 113.1 33.0477 111.101 43.4644C115.939 42.1295 120.904 41.3547 125.906 41.1542C133.128 40.9419 141.128 42.2644 145.471 48.0769C145.86 48.5957 146.215 49.1412 146.533 49.7096C146.878 50.34 147.18 50.9947 147.437 51.6689C148.016 53.4616 148.344 55.3309 148.413 57.2201C148.455 58.5586 148.333 59.8972 148.051 61.204C146.958 66.2817 143.394 70.788 138.115 74.1514C132.837 77.5148 125.859 79.7435 117.93 80.266C123.502 79.0362 129.195 78.4882 134.89 78.6333C143.889 78.919 153.927 81.4497 158.097 90.3807C159.608 93.654 160.134 97.3237 159.607 100.912C159.084 104.511 157.583 107.881 155.28 110.626C152.159 114.251 148.182 116.969 143.74 118.513C138.312 120.513 131.098 121.558 121.548 120.635L133.309 120.962L145.062 121.288C150.495 121.448 155.675 123.711 159.583 127.631C163.507 131.467 165.837 136.738 166.081 142.326C166.222 145.34 165.761 148.353 164.728 151.174C163.695 153.995 162.112 156.565 160.077 158.721C158.042 160.878 155.6 162.575 152.904 163.707C150.208 164.839 147.316 165.38 144.409 165.298L128.51 164.702L112.612 164.114L112.179 239.889L111.723 315.631Z" fill="#BAB653"/>
</svg>
